<svg xmlns="http://www.w3.org/2000/svg" viewBox="0 0 100 32" role="img" aria-label="Cigna">
  <title>Cigna</title>
  <path fill="#00874B" d="M12 4c-1.8 0-3.2.9-4 2.3L4.5 3.8C6 1.2 8.8 0 12.2 0 17 0 20.2 2.6 20.2 6.8c0 3.4-2.1 5.7-5.8 7.4l-2.8 1.2c-1.8.8-2.6 1.8-2.6 3.1 0 1.8 1.4 3 3.6 3 1.8 0 3.3-.8 4.2-2.2l3 2.6c-1.5 2.2-4.3 3.5-7.4 3.5-5 0-8.3-3-8.3-7.4 0-3.5 2.1-5.8 5.9-7.4l2.7-1.1c2-0.9 2.9-1.9 2.9-3.2 0-1.7-1.4-2.8-3.4-2.8z"/>
  <text x="24" y="23" fill="#00874B" font-family="Arial, Helvetica, sans-serif" font-size="20" font-weight="700">cigna</text>
</svg>
